<svg id="Layer_1" data-name="Layer 1" xmlns="http://www.w3.org/2000/svg" viewBox="0 0 612 792"><defs><style>.cls-1{fill:#d2d0e9;}.cls-2{fill:#a2a1ca;}.cls-3{fill:#fff45c;}.cls-3,.cls-4,.cls-7,.cls-8{stroke:#cc7e42;}.cls-3,.cls-7,.cls-8{stroke-miterlimit:10;}.cls-3,.cls-8{stroke-width:1.95px;}.cls-4,.cls-7{fill:none;}.cls-4{stroke-linecap:round;stroke-linejoin:round;stroke-width:5.86px;}.cls-5{fill:#cc7e42;}.cls-6{fill:#fec057;}.cls-7{stroke-width:2.11px;}.cls-8,.cls-9{fill:#fff;}</style></defs><circle class="cls-1" cx="290.69" cy="396.09" r="221.79"/><path class="cls-2" d="M242.74,466.74l57.75,151.13s212-8,212-239.73l-152-73.36C349.74,270.34,285,398.78,242.74,466.74Z"/><path class="cls-3" d="M371.43,345.38a80.72,80.72,0,0,0-79.67-80.71c-43-.55-80.65,35.66-81.74,78.63A80.42,80.42,0,0,0,225,392.21c11.87,16.63,17.77,36.8,17.77,57.23v17.3l95.94-17.3h0A101.22,101.22,0,0,1,357,391.5,80.32,80.32,0,0,0,371.43,345.38Z"/><line class="cls-4" x1="244.35" y1="476.77" x2="340.47" y2="459.47"/><line class="cls-4" x1="244.35" y1="490.53" x2="340.47" y2="473.23"/><line class="cls-4" x1="244.35" y1="504.66" x2="340.47" y2="487.36"/><path class="cls-5" d="M253.49,513.89l77.84-14.2C331.33,546.78,253.49,544.09,253.49,513.89Z"/><path class="cls-6" d="M277.91,459.47l30.79-5.4,7.66-36.66a43.87,43.87,0,0,1,5-13.41,30.43,30.43,0,0,0,4.3-15.55c0-17.92-15.64-32.45-34.94-32.45s-34.93,14.53-34.93,32.45c0,9.66,8.89,22.19,14.16,29.9"/><path class="cls-7" d="M288.58,459.12l-11.41-71c-.68-4.24,1.56-8,3.61-6.12,5.78,5.37,14.93,9.88,22.55-4.51,1.8-3.4,4.79-.41,4.41,4.4L302,455.56"/><path class="cls-8" d="M277,517.44a14.12,14.12,0,0,0,10.1,14.8.2.2,0,0,1-.07.4c-5.29-.28-21.78-2.08-24.67-13.51a.22.22,0,0,1,.2-.26l14.19-1.64A.21.21,0,0,1,277,517.44Z"/><path class="cls-9" d="M221.82,339.05c1.8-6.73,15.28-51.75,55.54-59.69a11.83,11.83,0,0,1,1.78-.2c3.37-.09,14.31.06,10.9,6.26a9.6,9.6,0,0,1-4.57,4c-8.71,3.89-42.25,20.61-50,50a10.7,10.7,0,0,1-1.35,3.1c-3.46,5.3-15,21.52-12.59-1.86A11.53,11.53,0,0,1,221.82,339.05Z"/><ellipse class="cls-9" cx="230.41" cy="371.46" rx="6.46" ry="11.33" transform="translate(-97.73 82.68) rotate(-16.84)"/><ellipse class="cls-9" cx="353.67" cy="347.83" rx="8.2" ry="4.37" transform="translate(-28.07 664.6) rotate(-84.21)"/><path class="cls-9" d="M341.9,362.82c9.66-11.49,11.69,3.75,6.19,16l-15.72,25.23c-6.93,8.26-23.12,1.38-18.62-9.29Z"/></svg>