<svg id="Layer_1" data-name="Layer 1" xmlns="http://www.w3.org/2000/svg" viewBox="0 0 612 792"><defs><style>.cls-1,.cls-2{fill:none;stroke:#9860a4;stroke-linecap:round;stroke-miterlimit:10;}.cls-1{stroke-width:12.85px;}.cls-2{stroke-width:11.83px;}.cls-3{fill:#9860a4;}</style></defs><path class="cls-1" d="M451.25,460.11V236.89s124.59,93.44,124.59,181.69Z"/><path class="cls-1" d="M404.53,236.89V460.11s-119.4,62.3-181.69,0C222.84,460.11,324.79,431.18,404.53,236.89Z"/><path class="cls-2" d="M539.33,460.11S425.14,530.46,271.24,520.6c0,0-162.24-22.52-206.76,107.62,0,0,69.94-52.36,206.76-15C271.24,613.2,539.33,677.41,539.33,460.11Z"/><path class="cls-3" d="M539.33,326.48c7.8-242.85-520-256.24-502.75,60.2,0,0,17.44,94.12,123.81,101.12,0,0-31.55-10.82-55.22-50.48C69.68,377.85,84,302.06,134.23,254.45,255.58,139.53,496.34,121.51,539.33,326.48Z"/></svg>