<svg id="Layer_1" data-name="Layer 1" xmlns="http://www.w3.org/2000/svg" viewBox="0 0 612 792"><defs><style>.cls-1{fill:#d2d0e9;}.cls-2{fill:none;stroke:#fff;stroke-linecap:round;stroke-miterlimit:10;stroke-width:5.87px;}</style></defs><circle class="cls-1" cx="306" cy="390.69" r="196.08"/><path class="cls-2" d="M306,380a28.79,28.79,0,1,0,28.79,28.79A28.79,28.79,0,0,0,306,380Zm0,44.31a15.52,15.52,0,1,1,15.52-15.52A15.52,15.52,0,0,1,306,424.34Z"/><path class="cls-2" d="M210.72,392.52l22.85-28a5.24,5.24,0,0,0-.29-6.95l-4.67-4.82a5.25,5.25,0,0,1,.71-7.9c17.6-12.8,81.68-51.47,151.87,3.42a5.24,5.24,0,0,1,1.2,6.85l-2.84,4.63a5.24,5.24,0,0,0,.7,6.38l28.31,29.25a5.24,5.24,0,0,0,8.95-2.91L421.65,363a38,38,0,0,0-17.26-37.35c-33.87-21.51-106.74-53.54-194.08-6.82a38.13,38.13,0,0,0-18,46.84l9.4,25.36A5.24,5.24,0,0,0,210.72,392.52Z"/><path class="cls-2" d="M340.4,358.42V339.91H321.52v13.83a104.39,104.39,0,0,0-31,0V339.91H271.6v18.61a103.65,103.65,0,0,0-69.07,97.53l207.26.35A103.64,103.64,0,0,0,340.4,358.42Z"/></svg>