<svg id="Layer_1" data-name="Layer 1" xmlns="http://www.w3.org/2000/svg" viewBox="0 0 612 792"><defs><style>.cls-1{fill:#d2d0e9;}.cls-2{fill:#a2a1ca;}.cls-3{fill:#bb91bf;}.cls-3,.cls-4,.cls-5{stroke:#fff;stroke-miterlimit:10;stroke-width:3px;}.cls-4{fill:#a76eab;}.cls-5{fill:#8e3691;}</style></defs><circle class="cls-1" cx="318.96" cy="398.44" r="219.43"/><path class="cls-2" d="M197.62,424.15,327.94,617.87s209.73-8,209.73-237.18L363.25,300S274.4,469.17,197.62,424.15Z"/><path class="cls-3" d="M301.52,460.19l-3-25,12.91.27a65.31,65.31,0,0,1,5.8-18.39l-10.38-5.44,17.8-25.37,10,8.45a72.82,72.82,0,0,1,29.23-15.11l-2.13-11,9.62-1c.1-2.55.09-5.11,0-7.67a80,80,0,0,0-4.42-21.93l13.8-4.31L363.25,300l-14.64,8.37a88.67,88.67,0,0,0-40.94-24.25,91.59,91.59,0,0,0-11.15-2.21l.68-15.64-39.46,3.95,2.64,13.6a90.08,90.08,0,0,0-36.21,18.72L211.81,292l-22.05,31.44,12.86,6.73A81,81,0,0,0,195.43,353l-16-.34,4.5,37.4,13.6-2.65a81,81,0,0,0,13,26.16l-12.89,10.59,29.85,24.66,9.22-11.93a90.48,90.48,0,0,0,33.76,11.38l-.54,15.39Zm-39.29-94c-.57-10,7.51-18.6,18-19.2s19.53,7,20.1,17.05h0c.56,10-7.52,18.61-18.06,19.2S262.79,376.16,262.23,366.15Z"/><path id="Path_11" data-name="Path 11" class="cls-4" d="M450.82,455a68.19,68.19,0,0,0-2.24-17.19l9.89-2.74L447.54,408.1,436.9,414A62.71,62.71,0,0,0,409,393.36a59.79,59.79,0,0,0-7.77-2.2l1.11-12.09-28,1.33,1.32,10.66A60.92,60.92,0,0,0,349.47,404l-8.29-8.66-16.78,23.4,8.79,5.78a66.68,66.68,0,0,0-6,17.34l-11.24-1,1.68,29.19,9.68-1.46a66.57,66.57,0,0,0,8.1,20.84l-9.51,7.66L346,517.53l7-8.84A60.73,60.73,0,0,0,376.28,519l-1,11.9,27.94-1.61-1.41-10.62a61.51,61.51,0,0,0,30.29-17.18l11.13,8.95L457,485l-10.85-5.21A67.69,67.69,0,0,0,450.82,455Zm-63.59,14.1c-7.45,0-13.48-6.31-13.48-14.09s6-14.1,13.48-14.1,13.48,6.31,13.48,14.1h0C400.71,462.76,394.67,469.07,387.23,469.07Z"/><path id="Path_12" data-name="Path 12" class="cls-5" d="M433.39,364.92a48.65,48.65,0,0,0-1.75-12.87l7.74-2.05-8.56-20.17-8.3,4.38a49,49,0,0,0-21.81-15.41,49.52,49.52,0,0,0-6.07-1.65l.86-9-21.87,1,1,8a48.66,48.66,0,0,0-20.54,9.66l-6.46-6.45-13.14,17.53,6.89,4.32a48.54,48.54,0,0,0-4.68,13l-8.79-.72,1.32,21.85,7.57-1.08a48.74,48.74,0,0,0,6.34,15.59l-7.44,5.73,15.69,15.29,5.44-6.63a48.69,48.69,0,0,0,18.27,7.71l-.77,8.9,21.85-1.2-1.1-7.93a48.85,48.85,0,0,0,23.69-12.94l8.71,6.71,10.76-19.07-8.53-3.92A48.6,48.6,0,0,0,433.39,364.92Zm-49.75,10.54a10.55,10.55,0,1,1,10.54-10.54,10.54,10.54,0,0,1-10.54,10.54Z"/></svg>