<svg id="Layer_1" data-name="Layer 1" xmlns="http://www.w3.org/2000/svg" viewBox="0 0 612 792"><defs><style>.cls-1{fill:#d2d0e9;}.cls-2{fill:#a2a1ca;}.cls-3{fill:#520d53;}.cls-4{fill:#9860a4;}.cls-5{fill:#8e3691;}.cls-6{fill:#fff;}</style></defs><circle class="cls-1" cx="306" cy="397.85" r="221.38"/><path class="cls-2" d="M183.15,496.33l132.27,122.9s211.6-8,211.6-239.3l-95.86-73.22C420.45,272.33,225.35,428.49,183.15,496.33Z"/><path id="Path_9" data-name="Path 9" class="cls-3" d="M281.13,384.78s24.44-1,17.82,26.46l-3.57,50.92s.51,17.32-21.89,14.77l-58.05.26L181.61,503a2.06,2.06,0,0,1-3.29-1.87l3-25.23h-8.06a6.7,6.7,0,0,1-6.7-6.71V406.15s-3.07-21.39,19.35-21.39Z"/><path id="Path_9-2" data-name="Path 9" class="cls-4" d="M286,380s24.44-1,17.82,26.47l-3.57,50.92s.52,17.32-21.89,14.77l-58.05.26-33.83,25.82a2.05,2.05,0,0,1-2.88-.38,2,2,0,0,1-.4-1.48l3-25.23h-8.06a6.71,6.71,0,0,1-6.7-6.71V401.32s-3.07-21.39,19.35-21.39Z"/><path id="Path_10" data-name="Path 10" class="cls-3" d="M246.17,298.13s-41.2-1.71-30,44.61h0l6,85.82s-.86,29.18,36.9,24.9h0l97.84.43h0l57,43.53a3.46,3.46,0,0,0,5.54-3.16l-5.05-42.54H428a11.3,11.3,0,0,0,11.3-11.3h0V334.19h0s5.15-36.06-32.61-36.06Z"/><path id="Path_10-2" data-name="Path 10" class="cls-5" d="M252,292.27s-41.2-1.71-30,44.61h0l6,85.82s-.86,29.18,36.9,24.9h0l97.84.43h0l57,43.53a3.46,3.46,0,0,0,5.54-3.16l-5.05-42.54h13.59a11.3,11.3,0,0,0,11.3-11.3h0V328.33h0s5.15-36.06-32.61-36.06Z"/><circle class="cls-6" cx="332.72" cy="369.27" r="12.86"/><circle class="cls-6" cx="292.05" cy="369.27" r="12.86"/><circle class="cls-6" cx="374.29" cy="369.27" r="12.86"/></svg>